<svg width="12" height="8" viewBox="0 0 12 8" fill="none" xmlns="http://www.w3.org/2000/svg">
<path d="M1 3.53009C0.723858 3.53009 0.5 3.75395 0.5 4.03009C0.5 4.30623 0.723858 4.53009 1 4.53009V3.53009ZM11.3536 4.38364C11.5488 4.18838 11.5488 3.8718 11.3536 3.67654L8.17157 0.494556C7.97631 0.299294 7.65973 0.299294 7.46447 0.494556C7.2692 0.689819 7.2692 1.0064 7.46447 1.20166L10.2929 4.03009L7.46447 6.85852C7.2692 7.05378 7.2692 7.37036 7.46447 7.56562C7.65973 7.76089 7.97631 7.76089 8.17157 7.56562L11.3536 4.38364ZM1 4.53009H11V3.53009H1V4.53009Z" fill="#231F20"/>
</svg>
