<svg width="4" height="10" viewBox="0 0 4 10" fill="none" xmlns="http://www.w3.org/2000/svg">
<path d="M1.75 9C1.75 9.13807 1.86193 9.25 2 9.25C2.13807 9.25 2.25 9.13807 2.25 9L1.75 9ZM2.17678 0.823223C2.07915 0.725592 1.92085 0.725592 1.82322 0.823223L0.232233 2.41421C0.134602 2.51184 0.134602 2.67014 0.232233 2.76777C0.329864 2.8654 0.488155 2.8654 0.585786 2.76777L2 1.35355L3.41421 2.76777C3.51184 2.8654 3.67014 2.8654 3.76777 2.76777C3.8654 2.67014 3.8654 2.51184 3.76777 2.41421L2.17678 0.823223ZM2.25 9L2.25 1L1.75 1L1.75 9L2.25 9Z" fill="white"/>
</svg>
