<svg width="18" height="17" viewBox="0 0 18 17" fill="none" xmlns="http://www.w3.org/2000/svg">
<path fill-rule="evenodd" clip-rule="evenodd" d="M4.47883 3.54167C3.50753 3.54167 2.62492 4.41122 2.62492 5.64713V11.3529C2.62492 12.5888 3.50753 13.4583 4.47883 13.4583H13.589C14.5634 13.4583 15.4274 12.5916 15.3725 11.3851C15.372 11.3744 15.3718 11.3636 15.3718 11.3529V5.64713C15.3718 4.41122 14.4891 3.54167 13.5178 3.54167H4.47883ZM1.20825 5.64713C1.20825 3.75659 2.60319 2.125 4.47883 2.125H13.5178C15.3935 2.125 16.7884 3.75659 16.7884 5.64713V11.3376C16.8668 13.2502 15.4561 14.875 13.589 14.875H4.47883C2.60319 14.875 1.20825 13.2434 1.20825 11.3529V5.64713Z" fill="#231F20"/>
<path fill-rule="evenodd" clip-rule="evenodd" d="M4.13371 5.31741C4.32659 4.97706 4.75885 4.85752 5.0992 5.0504L8.41334 6.92858C8.79701 7.13489 9.20291 7.13489 9.58658 6.92858L12.9007 5.0504C13.2411 4.85752 13.6733 4.97706 13.8662 5.31741C14.0591 5.65775 13.9395 6.09002 13.5992 6.2829L10.2789 8.16458L10.2676 8.17086C9.45916 8.60969 8.54076 8.60969 7.73235 8.17086L7.72103 8.16458L4.40072 6.2829C4.06037 6.09002 3.94083 5.65775 4.13371 5.31741Z" fill="#231F20"/>
</svg>
