<svg width="224" height="86" viewBox="0 0 224 86" fill="none" xmlns="http://www.w3.org/2000/svg">
<path d="M115.378 55.2709C115.333 58.4198 116.902 60.0142 119.713 61.1004C128.228 64.3838 139.543 61.3246 146.932 67.6673C155.506 75.0263 147.973 84.4282 139.239 85.9827C139.164 84.6823 140.664 84.199 141.022 83.0282C142.198 79.1867 137.241 76.8001 134.271 75.8235C123.335 72.2312 97.8545 71.8475 113.38 53.5321C105.144 47.5083 102.877 35.7946 109 27.3593C116.364 17.215 133.534 15.8349 144.082 21.5099C147.161 21.0316 148.969 16.926 146.707 14.38C144.052 11.3905 138.701 16.4926 138.701 9.43741C138.701 0.917429 150.031 -2.366 154.57 4.56458C159.074 11.4453 153.394 19.781 147.201 23.3085C154.899 29.7259 157.28 40.0147 151.78 48.6891C144.63 59.9644 126.509 60.2833 115.378 55.266V55.2709ZM133.594 54.105C137.605 50.3931 139.199 38.9933 138.676 33.7767C138.058 27.5636 133.843 17.0655 126.055 22.5662C119.792 26.9906 120.545 42.5059 122.941 48.9632C124.635 53.5321 128.736 58.6042 133.594 54.105Z" fill="white"/>
<path d="M44.5278 0.279702C46.7151 0.718157 49.0419 3.79731 49.9886 5.73548C57.9904 22.1676 61.9465 43.6071 69.7041 60.4029C71.458 64.2045 72.2153 64.922 75.992 66.5462C76.7095 66.8552 77.3472 66.2274 77.0881 67.6573H57.9456C54.2785 67.6573 51.7923 59.531 50.3224 56.9202C43.6061 44.9922 31.1001 42.6056 18.365 44.1701C17.4981 48.9433 10.423 59.8847 12.2217 64.1796C12.406 64.628 13.5171 65.5747 13.9904 65.8836C14.9869 66.5313 16.7806 66.1825 16.4368 67.6573H0.0345902C-0.294251 66.1775 1.80336 66.3669 2.85964 65.764C5.47542 64.2643 6.72602 62.7994 8.18587 60.1737L31.14 6.22874C32.1465 2.61647 28.5541 2.08833 26.0479 1.331C25.2258 1.08188 24.6529 1.72461 24.892 0.274719H44.5278V0.279702ZM19.4213 41.8931H41.0451C42.3057 41.8931 43.9349 38.7392 43.5662 37.4189C39.9191 29.0135 37.6421 19.1432 33.8604 10.9073C33.6362 10.419 33.5316 9.74635 32.849 9.69653L19.4213 41.8981V41.8931Z" fill="white"/>
<path d="M185.471 29.7559C185.262 27.6682 184.181 23.6374 182.686 22.1277C177.221 16.6022 165.895 23.7919 171.56 27.7629C173.155 28.879 175.412 28.1067 176.448 29.8406C177.131 40.2888 160.081 42.1273 160.091 30.7474C160.101 15.257 197.564 13.1095 201.266 29.3772C203.488 39.1577 200.698 52.0972 202.098 62.2464L202.99 63.3575L207.105 64.1846C200.857 69.1421 190.12 72.6448 185.227 64.1896C175.053 74.7125 152.562 68.4147 158.397 51.3149C162.054 40.5827 176.254 41.4846 185.476 41.3899C185.202 37.6431 185.85 33.4329 185.476 29.7459L185.471 29.7559ZM185.471 43.8761C177.549 43.1935 172.806 49.4913 173.514 57.0348C173.972 61.8927 177.779 65.7491 182.791 63.7262C183.748 63.3425 185.471 60.7816 185.471 59.9794V43.8761Z" fill="white"/>
<path d="M93.2519 0.279707C95.1652 0.663355 97.6863 3.4884 97.9404 5.51128L97.9703 61.9574C98.329 65.191 99.4451 66.8004 102.943 66.6658C103.077 67.3434 102.768 67.8566 102.116 68.0659C100.591 68.5442 90.0034 68.2752 88.0054 67.9314C85.3348 67.463 83.6209 66.048 82.2856 63.7212L82.0564 6.48285L81.0898 2.98518L77.0889 0.279707C81.7724 0.927425 88.8823 -0.597204 93.2469 0.279707H93.2519Z" fill="white"/>
<path d="M216.153 56.8604C225.495 54.7578 225.416 69.5606 216.776 67.9563C210.453 66.7804 210.752 58.0761 216.153 56.8604Z" fill="white"/>
</svg>
