<svg width="252" height="90" viewBox="0 0 252 90" fill="none" xmlns="http://www.w3.org/2000/svg">
<path d="M36.4843 49.6312L44.5369 52.9338L31.6849 65.7858L26.002 60.1126L36.4843 49.6312Z" fill="white"/>
<path d="M47.5282 63.0549C47.3747 62.7914 47.2069 62.5365 47.0254 62.2914C47.1665 62.4527 47.2911 62.6276 47.3974 62.8136C47.4478 62.894 47.4875 62.9744 47.5282 63.0549Z" fill="white"/>
<mask id="mask0_489_3392" style="mask-type:luminance" maskUnits="userSpaceOnUse" x="26" y="49" width="19" height="17">
<path d="M26.001 60.1134L31.6839 65.7857L44.5349 52.9347L36.4833 49.6301L26.001 60.1134Z" fill="white"/>
</mask>
<g mask="url(#mask0_489_3392)">
<path d="M35.2683 40.3645L17.9238 57.709L35.2683 75.0535L52.6128 57.709L35.2683 40.3645Z" fill="white"/>
</g>
<path d="M45.3004 79.4098L40.501 84.1995C39.2145 85.4849 37.4703 86.2069 35.6517 86.2069C33.8331 86.2069 32.0889 85.4849 30.8024 84.1995L26.003 79.4098C23.4443 76.8507 22.0068 73.38 22.0068 69.7612C22.0068 66.1423 23.4443 62.6716 26.003 60.1125L31.6859 65.7857C31.1634 66.3068 30.7487 66.9259 30.4658 67.6075C30.1829 68.2891 30.0373 69.0198 30.0373 69.7578C30.0373 70.4957 30.1829 71.2265 30.4658 71.9081C30.7487 72.5897 31.1634 73.2087 31.6859 73.7298L35.6522 77.697L39.6174 73.725C40.4988 72.8448 41.0628 71.6966 41.2206 70.461C41.3784 69.2254 41.1212 67.9724 40.4893 66.8989C40.0268 66.1204 39.8415 65.2084 39.9636 64.3112C40.0857 63.414 40.508 62.5845 41.1617 61.958L43.913 59.1979C43.913 59.1979 45.592 60.2336 47.0277 62.2932C47.2085 62.5385 47.376 62.7934 47.5295 63.0566C47.6497 63.2572 47.7601 63.4577 47.8706 63.6786C48.0013 63.9402 48.1215 64.2105 48.2319 64.472C48.3288 64.7133 48.4257 64.9438 48.5032 65.1851C49.3713 67.6163 49.5312 70.2442 48.9642 72.7627C48.3972 75.2813 47.1267 77.5871 45.3004 79.4118" fill="white"/>
<path d="M48.5027 65.1832C48.4223 64.942 48.3322 64.7114 48.2314 64.4702C48.3215 64.6639 48.3923 64.8519 48.463 65.0427C48.4793 65.0886 48.4926 65.1355 48.5027 65.1832Z" fill="white"/>
<path d="M28.4701 81.8736L35.6818 89.0852L43.2471 81.4579L38.5756 83.3335C36.7069 84.0185 34.6558 84.0185 32.7871 83.3335L28.2754 81.6788L28.4701 81.8736Z" fill="white"/>
<path d="M45.7935 33.619L34.4228 44.9897L26.3818 41.6503L40.098 27.9341L45.7935 33.619Z" fill="white"/>
<mask id="mask1_489_3392" style="mask-type:luminance" maskUnits="userSpaceOnUse" x="26" y="28" width="20" height="18">
<path d="M26.3076 41.723L34.0773 45.3356L45.3783 34.0347L39.6828 28.3488L26.3076 41.723Z" fill="white"/>
</mask>
<g mask="url(#mask1_489_3392)">
<path d="M38.3966 19.0364L23.2949 34.1381L38.3966 49.2398L53.4983 34.1381L38.3966 19.0364Z" fill="white"/>
</g>
<path d="M46.3683 47.0727L38.5095 43.8525L30.4394 40.5421L21.0112 36.6776L17.632 33.7141C17.5249 33.6652 17.4141 33.6247 17.3007 33.593C17.2707 33.5833 17.2396 33.5736 17.2038 33.5629C17.1143 33.535 17.0235 33.5117 16.9316 33.4932C15.8387 33.2024 14.7124 33.0567 13.5815 33.0601C6.09758 33.0582 0 39.1461 0 46.6329C0 54.1197 6.09757 60.2066 13.5747 60.2066C15.358 60.2131 17.1248 59.8653 18.7725 59.1834C20.4203 58.5016 21.9162 57.4992 23.1735 56.2346L31.3646 48.0444L39.2235 51.2744L46.3683 47.0727ZM17.4886 50.5371C16.8465 51.1784 16.0563 51.6516 15.1878 51.9148C14.3194 52.1779 13.3994 52.223 12.5093 52.046C11.6193 51.8691 10.7866 51.4754 10.0849 50.9C9.38313 50.3246 8.83403 49.5851 8.48613 48.747C8.13823 47.9088 8.00226 46.9979 8.09023 46.0947C8.1782 45.1915 8.48741 44.3238 8.9905 43.5686C9.4936 42.8133 10.1751 42.1937 10.9746 41.7645C11.7742 41.3353 12.6672 41.1098 13.5747 41.1079C13.9702 41.1074 14.3647 41.1479 14.7518 41.229L14.7615 41.2387L23.2946 44.7263L17.4886 50.5371Z" fill="white"/>
<path d="M49.3535 24.4446C49.3602 26.2267 49.0124 27.9924 48.3305 29.6389C47.6486 31.2855 46.6462 32.78 45.3815 34.0356L39.686 28.3508C40.4125 27.6242 40.9219 26.7093 41.1568 25.709C41.3918 24.7087 41.343 23.6627 41.016 22.6886C40.6889 21.7145 40.0966 20.851 39.3056 20.1952C38.5146 19.5394 37.5563 19.1173 36.5385 18.9763C35.5207 18.8354 34.4838 18.9812 33.5443 19.3974C32.6049 19.8136 31.8002 20.4836 31.2207 21.3322C30.6413 22.1807 30.3101 23.1741 30.2644 24.2006C30.2187 25.2271 30.4603 26.246 30.962 27.1427C31.4025 27.9263 31.5676 28.835 31.4308 29.7235C31.294 30.612 30.8632 31.429 30.2073 32.0438L27.4472 34.8087C27.4472 34.8087 24.63 33.2693 23.1913 29.5259C23.1099 29.3321 23.0402 29.1384 22.9695 28.9223C22.9415 28.8466 22.9179 28.7693 22.8987 28.6908C22.4376 27.3227 22.2033 25.8883 22.2051 24.4446C22.2051 16.9539 28.2891 10.8699 35.7788 10.8699C43.2686 10.8699 49.3535 16.9539 49.3535 24.4446Z" fill="white"/>
<mask id="mask2_489_3392" style="mask-type:luminance" maskUnits="userSpaceOnUse" x="17" y="44" width="15" height="13">
<path d="M17.4922 50.5165L23.1771 56.2111L31.3682 48.0209L23.2982 44.7106L17.4922 50.5165Z" fill="white"/>
</mask>
<g mask="url(#mask2_489_3392)">
<path d="M24.4312 36.4071L11.7422 49.0961L24.4312 61.7851L37.1202 49.0961L24.4312 36.4071Z" fill="white"/>
</g>
<path d="M58.5038 33.058C55.3977 33.0581 52.3857 34.1237 49.9706 36.0768C49.961 36.0865 49.9503 36.0865 49.9406 36.0962C49.8065 36.1992 49.6787 36.3102 49.5579 36.4285L40.6896 45.2939L32.8308 42.0736L27.6836 47.1908L35.5424 50.4207L43.6125 53.7311L53.5833 59.29C53.614 59.3048 53.6466 59.3153 53.6802 59.321C53.7735 59.3666 53.8708 59.4036 53.9708 59.4315C53.9814 59.4315 54.0018 59.4421 54.0105 59.4421C55.4518 59.9523 56.97 60.2109 58.4989 60.2065C65.9751 60.2065 72.0736 54.1186 72.0736 46.6318C72.0736 39.145 65.9702 33.058 58.4989 33.058M58.4989 52.1568C57.8625 52.1558 57.231 52.0454 56.6321 51.8303L56.542 51.8003L48.7635 48.6139L55.0607 42.3168C56.034 41.5291 57.2497 41.1022 58.5018 41.1087C59.967 41.1087 61.3722 41.6907 62.4083 42.7268C63.4443 43.7629 64.0264 45.168 64.0264 46.6332C64.0264 48.0984 63.4443 49.5036 62.4083 50.5397C61.3722 51.5757 59.967 52.1578 58.5018 52.1578" fill="white"/>
<mask id="mask3_489_3392" style="mask-type:luminance" maskUnits="userSpaceOnUse" x="40" y="36" width="16" height="13">
<path d="M40.6934 45.2736L48.7634 48.5946L55.0625 42.2955L49.5578 36.4082L40.6934 45.2736Z" fill="white"/>
</mask>
<g mask="url(#mask3_489_3392)">
<path d="M49.2838 29.2237L37.4121 41.0955L49.2838 52.9672L61.1556 41.0955L49.2838 29.2237Z" fill="white"/>
</g>
<path d="M14.7617 41.2385L53.5831 59.29L56.5418 51.8041L17.6303 33.7119L14.7617 41.2385Z" fill="white"/>
<path d="M45.3293 0C44.3015 0 43.3158 0.408275 42.5891 1.13501C41.8624 1.86175 41.4541 2.84741 41.4541 3.87517V7.75033H45.3293C46.357 7.75033 47.3427 7.34206 48.0694 6.61532C48.7962 5.88859 49.2044 4.90293 49.2044 3.87517C49.2044 2.84741 48.7962 1.86175 48.0694 1.13501C47.3427 0.408275 46.357 0 45.3293 0Z" fill="white"/>
<path d="M26.1799 0C25.1521 0 24.1664 0.408275 23.4397 1.13501C22.713 1.86175 22.3047 2.84741 22.3047 3.87517C22.3047 4.90293 22.713 5.88859 23.4397 6.61532C24.1664 7.34206 25.1521 7.75033 26.1799 7.75033H30.055V3.87517C30.055 2.84741 29.6467 1.86175 28.92 1.13501C28.1933 0.408275 27.2076 0 26.1799 0Z" fill="white"/>
<path d="M104.108 34.4784C108.45 34.4784 112.151 36.022 115.212 39.1092C118.297 42.1693 119.84 45.871 119.84 50.2144C119.84 54.5824 118.296 58.2961 115.208 61.3556C112.148 64.4428 108.447 65.9864 104.104 65.9864C99.9181 65.9864 96.3078 64.5474 93.2729 61.6694C90.238 58.7915 88.6043 55.2858 88.3718 51.1522H88.333V23.3344C90.2999 23.3344 92.1862 24.1157 93.577 25.5065C94.9678 26.8973 95.7491 28.7836 95.7491 30.7505V36.8722C98.2474 35.2876 101.149 34.4565 104.108 34.4784ZM104.108 58.5722C106.383 58.5722 108.345 57.7613 109.993 56.1396C111.616 54.4907 112.428 52.5157 112.427 50.2144C112.427 47.9378 111.616 45.9757 109.993 44.3281C108.346 42.7063 106.385 41.8951 104.108 41.8945C101.806 41.8945 99.8306 42.7057 98.1817 44.3281C96.56 45.9757 95.7491 47.9378 95.7491 50.2144C95.7491 52.5163 96.56 54.4913 98.1817 56.1396C99.8306 57.7613 101.806 58.5722 104.108 58.5722Z" fill="white"/>
<path d="M139.542 34.4784C143.885 34.4784 147.587 36.022 150.649 39.1092C153.735 42.1693 155.278 45.8711 155.278 50.2145V53.9424H132.047C133.589 57.029 136.087 58.5726 139.541 58.5732H140.444C142.411 58.5732 144.298 59.3546 145.688 60.7453C147.079 62.1361 147.86 64.0224 147.86 65.9893H138.6V65.9506C134.466 65.7142 130.961 64.0789 128.083 61.0446C125.205 58.0103 123.766 54.4003 123.767 50.2145C123.767 45.8724 125.31 42.1706 128.396 39.1092C131.458 36.0214 135.172 34.4777 139.538 34.4784M146.997 46.5253C145.454 43.4387 142.968 41.8955 139.538 41.8955C136.085 41.8955 133.587 43.4387 132.043 46.5253H146.997Z" fill="white"/>
<path d="M174.977 34.4784C179.32 34.4784 183.022 36.022 186.083 39.1092C189.17 42.1693 190.713 45.8711 190.713 50.2145V53.9424H167.482C169.025 57.029 171.524 58.5726 174.977 58.5732H175.88C177.847 58.5735 179.733 59.3549 181.124 60.7456C182.514 62.1364 183.296 64.0225 183.296 65.9893H174.034V65.9506C169.901 65.7142 166.395 64.0789 163.517 61.0446C160.639 58.0103 159.201 54.4003 159.202 50.2145C159.202 45.8724 160.746 42.1706 163.833 39.1092C166.894 36.0214 170.608 34.4777 174.974 34.4784M182.434 46.5253C180.89 43.4387 178.403 41.8955 174.974 41.8955C171.521 41.8955 169.023 43.4387 167.48 46.5253H182.434Z" fill="white"/>
<path d="M194.638 23.3334C196.605 23.3337 198.491 24.1152 199.882 25.5062C201.273 26.8971 202.054 28.7835 202.054 30.7505V65.9893C200.087 65.9891 198.201 65.2075 196.81 63.8166C195.419 62.4256 194.638 60.5392 194.638 58.5723V23.3334Z" fill="white"/>
<path d="M205.978 34.4784C206.951 34.4784 207.916 34.6702 208.816 35.0429C209.715 35.4156 210.533 35.9619 211.222 36.6505C211.91 37.3392 212.456 38.1567 212.829 39.0565C213.202 39.9562 213.394 40.9206 213.394 41.8945V65.9893C211.427 65.9893 209.54 65.208 208.15 63.8172C206.759 62.4264 205.978 60.5401 205.978 58.5732V34.4784Z" fill="white"/>
<path d="M251.207 34.4318L239.114 60.1202C238.295 61.8613 236.997 63.3333 235.372 64.3643C233.747 65.3953 231.863 65.9427 229.939 65.9427L215.106 34.4318H218.594C220.002 34.4319 221.381 34.8328 222.57 35.5876C223.758 36.3425 224.707 37.4201 225.306 38.6944L233.153 55.3877L241 38.6944C241.599 37.42 242.548 36.3424 243.737 35.5875C244.926 34.8327 246.305 34.4318 247.713 34.4318H251.207Z" fill="white"/>
</svg>
