<svg width="203" height="82" viewBox="0 0 203 82" fill="none" xmlns="http://www.w3.org/2000/svg">
<path d="M202.265 28.1646C201.826 29.8216 200.948 31.2483 199.726 32.4109C198.652 33.4338 197.464 34.3585 196.242 35.2116C193.76 36.9479 191.051 38.2689 188.18 39.2541C187.926 39.3409 187.76 39.4541 187.722 39.7372C187.609 40.6771 187.423 41.6132 187.374 42.5568C187.246 45.097 189.625 46.0294 191.358 45.4934C194.959 44.3799 197.698 42.1454 199.908 39.1786C200.139 38.8691 200.362 38.5822 200.793 38.7257C201.217 38.8691 201.209 39.2428 201.251 39.6164C201.379 40.7262 200.812 41.5415 200.184 42.3567C198.266 44.8404 196.079 47.0221 193.268 48.5054C191.736 49.3132 190.136 49.9096 188.396 50.0945C185.645 50.3814 183.481 49.1433 182.467 46.5729C182.081 45.5953 181.892 44.5422 181.62 43.5419C181.045 44.0477 180.428 44.6668 179.736 45.1839C178.181 46.3502 176.585 47.4637 175.011 48.6036C174.152 49.2226 173.286 49.8265 172.253 50.1323C169.771 50.8645 167.422 50.6569 165.292 49.098C164.467 48.4941 163.949 47.6411 163.517 46.7314C163.461 46.6144 163.408 46.4936 163.351 46.3766C162.549 47.007 161.785 47.6335 160.99 48.2223C159.742 49.1509 158.38 49.8303 156.848 50.1775C155.463 50.4871 153.817 49.551 153.367 48.1393C153.057 47.173 152.883 46.1841 152.943 45.1612C152.947 45.0933 152.936 45.0253 152.928 44.9385C152.032 45.7085 151.192 46.4785 150.295 47.1844C148.672 48.4601 146.94 49.5472 144.897 50.0379C144.015 50.2493 143.145 50.3436 142.286 49.9209C141.034 49.3019 140.618 48.211 140.557 46.9164C140.482 45.3273 140.909 43.8401 141.507 42.3983C142.441 40.1449 143.429 37.9141 144.393 35.6721C144.458 35.5249 144.526 35.3777 144.632 35.1474C144.492 35.2078 144.424 35.2229 144.375 35.2607C142.646 36.51 140.879 37.6877 138.809 38.3218C138.654 38.3709 138.511 38.5634 138.435 38.7219C137.202 41.3414 135.677 43.776 133.774 45.9652C131.943 48.0714 129.737 49.6529 126.998 50.3361C125.292 50.7626 123.586 50.6796 121.993 49.8076C120.855 49.1848 120.234 48.162 119.773 46.9956C119.243 45.6594 119.25 44.2855 119.417 42.8965C119.614 41.2621 120.03 39.6806 120.605 38.1368C120.631 38.0689 120.639 37.9934 120.673 37.8462C119.965 38.0161 119.3 38.1821 118.634 38.3293C117.737 38.5294 116.833 38.703 115.94 38.9219C115.74 38.971 115.49 39.1371 115.407 39.3145C114.06 42.2058 112.706 45.0933 111.419 48.0147C110.689 49.6718 109.584 50.3738 107.863 50.087C107.053 49.9511 106.755 49.6227 106.637 48.8263C106.331 46.7729 106.032 44.7196 105.684 42.6738C105.578 42.0548 105.332 41.4622 105.151 40.8583C105.082 40.6393 104.958 40.5714 104.712 40.6054C103.085 40.8205 101.458 41.0696 99.82 41.2055C96.7367 41.466 93.6534 41.7566 90.5664 41.8472C87.3507 41.9415 84.1274 41.8472 80.9117 41.7566C79.2736 41.7113 77.6355 41.4924 76.0011 41.3452C75.6417 41.3112 75.2748 41.2659 74.9305 41.1678C74.5824 41.0696 74.4235 41.2017 74.2495 41.4811C72.8876 43.6854 71.5256 45.8935 70.1183 48.0714C69.6719 48.7621 69.1195 49.3924 68.571 50.0077C68.1435 50.4908 67.5571 50.5512 67.0085 50.2379C65.4309 49.3396 64.5873 47.9846 64.6327 46.169C64.644 45.6896 64.8672 45.1688 65.132 44.7536C66.1308 43.172 67.1825 41.6245 68.2116 40.0618C68.2607 39.9901 68.2986 39.9109 68.3742 39.7825C67.8673 39.6164 67.3868 39.4617 66.9101 39.3032C64.523 38.5067 62.2152 37.5442 60.1307 36.1212C59.5973 35.7589 59.0903 35.3437 58.6288 34.8908C57.0777 33.3696 56.9074 31.3767 58.1899 29.614C59.0184 28.4741 60.1118 27.6059 61.3224 26.9039C64.0652 25.311 67.0274 24.3146 70.1296 23.6955C72.7627 23.1671 75.4223 22.9331 78.1046 23.0614C78.6683 23.0878 78.9785 22.9142 79.2925 22.4311C81.604 18.8264 83.9345 15.2331 86.2989 11.6586C88.183 8.81261 90.2826 6.12138 92.6017 3.61133C93.1843 2.98098 93.8502 2.4299 94.4971 1.86373C94.9549 1.45985 95.5223 1.36171 96.1125 1.42966C96.6951 1.4976 97.0016 1.87505 96.8275 2.4299C96.5854 3.1999 96.3168 3.97368 95.9498 4.69084C92.9649 10.5489 89.613 16.1993 86.0871 21.7479C85.7012 22.3556 85.3304 22.9784 84.9143 23.654C85.6028 23.8088 86.246 23.9447 86.8853 24.1032C92.1591 25.4167 96.8994 27.7871 101.05 31.3012C103.104 33.0412 104.795 35.1059 106.221 37.3819C106.414 37.6877 106.607 37.7858 106.948 37.7443C107.681 37.6499 108.423 37.6084 109.153 37.4914C109.361 37.4574 109.615 37.2687 109.721 37.08C112.997 31.2446 116.201 25.3639 119.546 19.5662C122.031 15.2595 124.63 11.0132 127.316 6.82722C128.572 4.86824 130.161 3.12441 131.595 1.2749C132.537 0.0595063 133.789 -0.208484 135.197 0.142546C136.184 0.387889 136.528 1.12392 136.044 2.01848C134.864 4.20393 133.668 6.38182 132.401 8.5182C128.368 15.3086 124.426 22.148 120.715 29.1195C119.504 31.3918 118.312 33.6754 117.109 35.9514C117.049 36.0684 116.999 36.1892 116.905 36.393C117.419 36.3024 117.854 36.2383 118.282 36.1477C119.345 35.9174 120.404 35.6872 121.46 35.4267C121.634 35.3852 121.823 35.2229 121.918 35.0644C123.064 33.1696 124.119 31.2144 125.356 29.3837C126.124 28.2476 127.119 27.2436 128.107 26.2735C128.901 25.4922 129.923 25.1148 131.084 25.1676C131.345 25.1789 131.637 25.043 131.875 24.9072C133.672 23.8956 135.586 23.7484 137.531 24.2542C139.49 24.7637 140.773 26.7265 140.784 29.0176C140.796 30.9539 140.569 32.8601 139.975 34.7096C139.944 34.8077 139.929 34.9096 139.888 35.1059C140.262 34.9662 140.576 34.8568 140.886 34.7322C143.444 33.7093 145.517 32.007 147.303 29.9688C147.969 29.2101 148.37 28.225 148.907 27.353C149.599 26.2245 150.235 25.043 151.298 24.1938C151.627 23.9296 151.964 23.6691 152.327 23.4577C153.034 23.0501 153.772 23.3068 153.991 24.0843C154.51 25.9112 154.593 27.7645 153.742 29.5045C153.341 30.3274 152.648 31.0143 152.096 31.7655C149.754 34.9436 147.602 38.2274 146.33 42.0019C146.126 42.6134 145.945 43.2362 145.801 43.8666C145.74 44.1345 145.755 44.4403 145.82 44.712C145.952 45.282 146.417 45.5311 146.992 45.4141C148.793 45.048 150.28 44.0855 151.684 42.9644C151.861 42.8248 152.028 42.67 152.198 42.5191C153.064 41.7679 153.704 40.8847 154.162 39.8089C156.295 34.7813 158.974 30.048 162.159 25.6092C162.553 25.0581 163.079 24.5674 163.627 24.1673C164.221 23.7371 164.63 23.8805 165.019 24.5108C165.511 25.2959 165.678 26.1829 165.765 27.0888C165.897 28.4665 165.541 29.6857 164.72 30.8218C163.423 32.6185 162.152 34.434 160.949 36.2949C159.503 38.5294 158.376 40.9224 157.672 43.4967C157.525 44.044 157.438 44.6101 157.351 45.1725C157.256 45.7765 157.775 46.3313 158.406 46.3011C159.424 46.252 160.29 45.784 161.126 45.2669C161.652 44.9423 162.299 44.663 162.606 44.1798C162.893 43.7269 162.742 43.0173 162.897 42.4511C163.109 41.6736 163.324 40.8734 163.714 40.1788C164.376 39.0012 165.67 38.5143 167.028 38.7785C167.32 38.8351 167.516 38.8087 167.709 38.5256C169.415 36.0193 171.133 33.5244 172.858 31.0294C174.651 28.4363 176.668 26.0395 179.119 24.0352C179.607 23.6351 180.11 23.2388 180.81 23.2652C181.525 23.2879 182.032 23.7899 182.108 24.5071C182.221 25.5677 181.847 26.5189 181.533 27.4927C181.412 27.8626 181.276 28.2401 181.238 28.6251C181.174 29.2667 180.905 29.7612 180.398 30.1575C179.513 30.8482 179.237 31.807 179.233 32.8789C179.225 34.4756 179.259 36.0722 179.191 37.665C179.104 39.6768 178.764 41.6585 178.136 43.6703C178.295 43.591 178.408 43.5646 178.484 43.4929C179.638 42.4549 180.791 41.4131 181.93 40.36C182.063 40.2355 182.153 40.0354 182.195 39.8542C182.967 36.5742 184.563 33.7093 186.67 31.1162C188.411 28.9723 190.386 27.07 192.739 25.5903C194.074 24.7524 195.463 24.0164 197.04 23.7521C198.255 23.5483 199.473 23.4955 200.646 23.9899C201.466 24.3372 202 24.926 202.185 25.8093C202.2 25.8772 202.246 25.9376 202.276 26.0018V28.1721L202.265 28.1646ZM103.615 38.0727C103.645 38.0198 103.675 37.9632 103.702 37.9104C102.847 37.0007 102.033 36.0533 101.133 35.1927C98.7759 32.9393 96.0368 31.2408 93.0897 29.8669C89.9762 28.4137 86.7 27.538 83.3027 27.085C82.9622 27.0398 82.7692 27.1341 82.5839 27.4512C81.0517 30.082 79.4968 32.6978 77.9495 35.321C77.5522 35.9891 77.1626 36.6648 76.7313 37.397C85.7277 38.5671 94.6522 39.0201 103.615 38.0689V38.0727ZM76.6367 26.6246C74.45 26.5604 72.3655 26.6132 70.3226 27.0171C68.3931 27.3946 66.494 27.9268 64.5986 28.4514C63.4031 28.7836 62.2606 29.2705 61.3527 30.1613C60.6452 30.8558 60.5241 31.7994 61.1446 32.5657C61.4661 32.962 61.9163 33.2979 62.3741 33.5244C64.8294 34.7473 67.4322 35.5475 70.1031 36.1514C70.5306 36.2496 70.7576 36.1175 70.9771 35.7589C72.3239 33.5621 73.6896 31.3767 75.0478 29.1875C75.5623 28.3608 76.073 27.5304 76.6367 26.6208V26.6246ZM137.361 30.8029C137.334 30.5312 137.304 30.2028 137.27 29.8744C137.084 28.1193 135.526 27.0926 133.808 27.5493C131.909 28.0551 130.562 29.2479 129.639 30.9124C129.246 31.6182 128.894 32.4298 128.829 33.2224C128.644 35.4494 130.521 37.246 132.787 37.0875C133.698 37.0234 134.603 36.8195 135.507 36.6497C135.677 36.6195 135.904 36.4911 135.968 36.3477C136.736 34.6001 137.251 32.7846 137.364 30.8067L137.361 30.8029ZM176.013 31.2936C175.03 31.973 174.402 32.7997 173.785 33.6301C171.946 36.091 170.164 38.5973 168.269 41.013C167.312 42.236 166.968 43.5155 167.229 45.0102C167.599 47.1428 169.544 48.0034 171.386 46.8673C172.446 46.2143 173.066 45.2405 173.354 44.0968C173.668 42.8474 173.823 41.5565 174.023 40.2808C174.386 37.9519 174.716 35.6117 175.4 33.347C175.593 32.7053 175.786 32.0599 176.017 31.2899L176.013 31.2936ZM126.745 35.7023C125.716 37.5971 124.834 39.4353 124.464 41.4697C124.301 42.3492 124.131 43.2362 124.35 44.1496C124.657 45.4217 125.485 46.1237 126.79 46.1162C127.918 46.1124 128.966 45.8218 129.889 45.1461C131.228 44.1685 132.382 43.006 133.309 41.6283C133.725 41.0092 134.099 40.36 134.538 39.6542C134.33 39.6655 134.239 39.658 134.152 39.6806C132.896 39.9901 131.64 39.9562 130.392 39.6315C128.86 39.2352 127.585 38.5143 127.044 36.9101C126.927 36.5591 126.862 36.1892 126.745 35.6985V35.7023ZM188.683 36.5931C188.732 36.6421 188.785 36.6874 188.834 36.7365C190.045 36.0948 191.259 35.4683 192.459 34.8115C194.808 33.5319 196.825 31.8598 198.432 29.7121C198.852 29.1535 199.106 28.5382 199.113 27.8362C199.117 27.304 198.72 26.885 198.186 26.8661C197.933 26.8586 197.649 26.851 197.43 26.9492C196.628 27.3153 195.78 27.6324 195.065 28.1381C192.909 29.6555 191.301 31.6824 190.003 33.9547C189.515 34.8077 189.118 35.7098 188.676 36.5931H188.683Z" fill="white"/>
<path d="M25.4695 49.887C18.3306 49.887 11.1918 49.853 4.05668 49.9058C1.89649 49.9247 0.515625 48.3696 0.515625 46.3918C0.542107 32.4298 0.530758 18.4679 0.526975 4.50218C0.526975 3.30943 0.901509 2.3205 1.88135 1.59202C2.44883 1.17305 3.08819 1.0032 3.79186 1.0032C16.2083 1.0032 28.6247 1.0032 41.041 1.0032C43.0537 1.0032 45.0664 1.03717 47.0752 0.991875C48.9857 0.946581 50.4196 2.39977 50.4196 4.37007C50.4233 13.1458 50.4196 21.9216 50.4196 30.6973C50.4196 35.9892 50.4196 41.2811 50.4196 46.5767C50.4196 48.2073 49.4094 49.4869 47.8319 49.8341C47.5141 49.9058 47.1698 49.887 46.8407 49.887C39.7169 49.887 32.5932 49.887 25.4733 49.887H25.4695ZM17.5816 2.52433V24.3826C17.7367 24.2731 17.835 24.2089 17.9296 24.1372C19.7682 22.7784 21.7279 21.6309 23.82 20.7024C26.0105 19.7324 28.2955 19.0643 30.6714 18.7736C32.5327 18.5472 34.4054 18.5283 36.278 18.7397C38.2301 18.9586 40.099 19.4568 41.8507 20.3476C44.48 21.6913 46.4434 23.7371 47.9983 26.2057C48.2669 26.6322 48.5242 27.0587 48.8647 27.6098C48.8836 27.3305 48.8987 27.187 48.8987 27.0474C48.8987 25.3602 48.8987 23.6729 48.8987 21.9857C48.8949 18.8227 48.8836 15.6634 48.8836 12.5004C48.8836 9.83557 48.876 7.17076 48.9101 4.50595C48.9214 3.40002 48.2745 2.50546 46.9428 2.50923C37.3411 2.53943 27.7394 2.52433 18.1377 2.52433C17.9599 2.52433 17.7821 2.52433 17.5929 2.52433H17.5816ZM17.5475 32.2713C17.5475 32.5317 17.5475 32.6789 17.5475 32.8262C17.5475 37.8463 17.5475 42.8664 17.5286 47.8903C17.5286 48.2828 17.6005 48.4413 18.0469 48.4376C22.9764 48.4187 27.9058 48.4187 32.8353 48.43C33.2666 48.43 33.3688 48.2866 33.365 47.8865C33.3498 44.9159 33.365 41.9454 33.3498 38.9748C33.3461 38.2124 33.3007 37.4386 33.1796 36.6837C32.5138 32.5431 29.752 30.3538 25.791 30.1462C23.6649 30.033 21.675 30.6294 19.7228 31.3692C19.0116 31.6372 18.3155 31.9391 17.5513 32.2524V24.3788C10.9534 29.4253 6.12986 35.842 1.80569 42.689C6.58006 38.5672 11.7365 35.0418 17.5437 32.2713H17.5475Z" fill="white"/>
<path d="M186.292 75.6178C186.009 75.4856 185.774 75.3875 185.551 75.2667C184.847 74.8779 184.635 74.308 184.908 73.5493C185.222 72.6812 185.786 71.9753 186.387 71.2922C186.535 71.1223 186.686 70.9562 186.864 70.7599C186.739 70.6694 186.644 70.5825 186.535 70.5184C183.958 69.001 183.954 65.0906 186.455 63.4261C187.915 62.4522 189.531 62.1729 191.218 62.3428C193.189 62.5428 195.153 62.7165 197.135 62.6447C197.407 62.6334 197.68 62.6296 197.948 62.5919C198.365 62.5315 198.561 62.6712 198.463 63.1656C197.419 63.4261 196.344 63.6941 195.24 63.9696C195.262 64.0451 195.266 64.1092 195.3 64.1432C197.059 65.9701 196.443 69.3785 193.87 70.6845C192.047 71.6092 190.163 71.6017 188.229 71.1789C188.108 71.1525 187.881 71.1638 187.847 71.2318C187.601 71.7413 187.359 72.2584 187.182 72.7944C187.068 73.1379 187.269 73.3757 187.635 73.4285C187.946 73.4738 188.26 73.5304 188.574 73.5304C190.129 73.5191 191.687 73.4701 193.242 73.4738C194.332 73.4738 195.399 73.6399 196.435 74.0211C198.917 74.9346 198.781 77.2219 198.001 78.6487C197.392 79.7622 196.359 80.3963 195.247 80.8983C193.064 81.8872 190.776 82.1514 188.4 81.9136C187.227 81.7966 186.111 81.5588 185.093 80.9474C183.966 80.268 183.633 79.1733 184.2 77.9919C184.601 77.1615 185.226 76.5085 185.925 75.9235C186.035 75.8291 186.149 75.7385 186.3 75.6178H186.292ZM189.345 75.7876C189.345 75.7876 189.345 75.765 189.345 75.7536C189.088 75.7536 188.831 75.7536 188.574 75.7536C186.996 75.7536 186.86 75.8518 186.345 77.3427C185.865 78.7242 186.383 79.9056 187.764 80.4038C189.958 81.1927 192.081 80.9323 194.074 79.7735C194.521 79.5131 194.922 79.0677 195.183 78.6185C195.875 77.422 195.368 76.2443 194.025 75.9386C193.238 75.7612 192.417 75.7046 191.608 75.6781C190.859 75.6555 190.106 75.7499 189.353 75.7914L189.345 75.7876ZM193.341 66.9288C193.25 66.0494 193.098 65.2114 192.633 64.4603C192.085 63.5657 191.218 63.2675 190.235 63.3015C189.274 63.3355 188.456 63.7129 188.052 64.649C187.431 66.0871 187.446 67.5516 188.071 68.9784C188.521 70.0126 189.55 70.5486 190.734 70.4618C191.861 70.3825 192.648 69.7899 192.985 68.6802C193.159 68.1102 193.223 67.5101 193.337 66.925L193.341 66.9288Z" fill="white"/>
<path d="M132.786 63.3204C134.356 63.0034 135.915 62.6863 137.546 62.3542V63.7205C138.257 63.3922 138.885 63.0223 139.558 62.7996C141.624 62.1201 143.686 62.0937 145.562 63.328C147.121 64.3547 147.885 65.9022 147.968 67.7555C148.017 68.8954 148.025 70.0391 147.616 71.1412C146.773 73.406 145.123 74.7346 142.816 75.3121C141.196 75.716 139.562 75.7386 137.92 75.4782C137.833 75.4631 137.746 75.4593 137.629 75.448C137.606 75.565 137.572 75.6631 137.572 75.7612C137.576 77.1918 137.591 78.6261 137.591 80.0566C137.591 80.5171 137.773 80.7851 138.253 80.8682C138.681 80.9437 139.1 81.0871 139.528 81.1701C139.91 81.2456 140.088 81.4268 139.948 81.8986C139.543 81.8722 139.116 81.8118 138.692 81.8156C136.88 81.8269 135.068 81.8571 133.259 81.8722C133.127 81.8722 132.972 81.8722 132.873 81.808C132.688 81.6797 132.775 81.3173 133.006 81.2456C133.411 81.1211 133.819 81.0154 134.228 80.9097C134.629 80.804 134.833 80.5851 134.833 80.1397C134.814 75.0743 134.799 70.0127 134.807 64.9473C134.807 64.4339 134.663 64.181 134.133 64.1357C133.808 64.1055 133.498 63.9508 133.176 63.8904C132.858 63.8338 132.733 63.679 132.798 63.3129L132.786 63.3204ZM137.572 69.3823H137.602C137.602 70.877 137.602 72.368 137.602 73.8627C137.602 74.0627 137.576 74.2628 137.871 74.2816C138.745 74.3383 139.619 74.4892 140.489 74.4515C142.6 74.3684 144.015 73.3229 144.635 71.4545C145.074 70.1259 145.123 68.752 144.836 67.3931C144.526 65.9437 143.776 64.7963 142.297 64.2905C140.803 63.7809 139.327 63.9546 137.871 64.4679C137.602 64.5623 137.568 64.7472 137.572 64.9963C137.583 66.4571 137.576 67.9216 137.576 69.3823H137.572Z" fill="white"/>
<path d="M181.897 75.2215H175.359C175.2 74.8403 175.299 74.6252 175.7 74.5648C175.787 74.5497 175.874 74.5082 175.961 74.4893C177.133 74.21 177.137 74.21 177.134 73.0286C177.126 70.9941 177.115 68.9596 177.099 66.9214C177.088 65.2002 176.12 64.1773 174.406 64.0112C173.184 63.8942 172.041 64.1622 170.922 64.6189C170.679 64.7171 170.566 64.8454 170.57 65.1172C170.577 67.363 170.57 69.6126 170.577 71.8585C170.577 72.4737 170.623 73.0927 170.626 73.708C170.626 74.0477 170.766 74.2439 171.099 74.3232C171.436 74.4025 171.769 74.5044 172.109 74.5723C172.476 74.644 172.643 74.8214 172.499 75.2253C172 75.2253 171.493 75.2253 170.986 75.2253C169.412 75.2404 167.842 75.2593 166.268 75.2668C166.06 75.2668 165.792 75.3461 165.761 74.9875C165.731 74.6516 165.984 74.6403 166.193 74.5799C166.571 74.4742 166.949 74.3723 167.331 74.2741C167.668 74.1873 167.853 73.9873 167.85 73.6325C167.838 70.9941 167.827 68.3557 167.812 65.7173C167.812 65.3248 167.789 64.9322 167.793 64.5434C167.793 64.3094 167.717 64.1962 167.471 64.1471C167.013 64.0603 166.556 63.9584 166.113 63.8187C165.977 63.7772 165.882 63.5998 165.765 63.4866C165.886 63.3847 165.996 63.2261 166.132 63.1959C167.445 62.9128 168.761 62.6562 170.074 62.3731C170.437 62.2938 170.585 62.3769 170.562 62.7581C170.543 63.128 170.558 63.5017 170.558 63.9659C170.77 63.8452 170.922 63.7659 171.065 63.6753C172.59 62.7203 174.22 62.2259 176.048 62.3202C178.272 62.4335 179.838 63.9886 179.85 66.2118C179.861 68.4878 179.873 70.7638 179.88 73.0399C179.88 73.055 179.88 73.0701 179.88 73.0852C179.888 73.7671 180.229 74.1961 180.905 74.3723C181.14 74.4327 181.363 74.5195 181.601 74.5686C181.957 74.644 182.037 74.8441 181.9 75.2102L181.897 75.2215Z" fill="white"/>
<path d="M38.2227 74.542C38.2606 74.7232 38.2946 74.8817 38.3438 75.1044C37.4661 75.3233 36.6338 75.5951 35.7826 75.731C34.7611 75.897 33.9931 75.4516 33.5354 74.4816C33.0019 74.742 32.4988 75.01 31.9805 75.2365C30.3726 75.9348 28.7383 75.965 27.104 75.3309C25.742 74.8024 25.0157 73.806 24.974 72.3301C24.9324 70.8958 25.5869 69.8805 26.8316 69.2199C28.0573 68.5707 29.4041 68.3782 30.7585 68.2574C31.5984 68.1819 32.4458 68.1781 33.2895 68.1404C33.5127 66.7136 33.3916 65.502 32.4912 64.8113C32.1545 64.5546 31.7346 64.3659 31.3222 64.2602C29.9905 63.9129 28.6626 64.1545 27.3423 64.4036C27.3272 64.4036 27.312 64.415 27.3007 64.415C26.5024 64.6037 26.423 64.5471 26.2452 63.5846C27.0888 63.3279 27.94 63.0373 28.8102 62.8108C30.1381 62.4673 31.4849 62.3616 32.843 62.6372C35.0524 63.0826 36.1798 64.4036 36.2025 66.6834C36.2214 68.5971 36.1647 70.5108 36.1458 72.4207C36.1458 72.6925 36.1458 72.9642 36.1609 73.236C36.1987 74.0551 36.5808 74.4363 37.4018 74.4816C37.6553 74.4967 37.9125 74.5156 38.2265 74.5382L38.2227 74.542ZM33.3576 69.201C32.5744 69.2426 31.8329 69.2161 31.1141 69.3445C30.3688 69.4766 29.6046 69.6615 28.9312 69.9899C28.1103 70.3938 27.9249 71.2317 27.993 72.0848C28.0611 72.9303 28.4243 73.6021 29.2982 73.9079C30.5883 74.357 31.8481 74.2023 33.0965 73.7569C33.2062 73.7191 33.3386 73.5531 33.3424 73.4474C33.3576 72.0659 33.3538 70.6844 33.3538 69.201H33.3576Z" fill="white"/>
<path d="M151.733 63.4639C153.16 62.9015 154.616 62.4221 156.179 62.3844C157.325 62.358 158.475 62.324 159.553 62.8562C160.779 63.4601 161.543 64.4264 161.6 65.7777C161.679 67.6423 161.615 69.5107 161.615 71.3791C161.615 71.9528 161.6 72.5265 161.623 73.0965C161.653 73.8438 161.982 74.1722 162.727 74.2704C162.981 74.3043 163.238 74.3194 163.484 74.3798C163.586 74.4062 163.745 74.5232 163.741 74.5912C163.737 74.7271 163.662 74.9573 163.571 74.9837C162.788 75.1951 162.005 75.4178 161.203 75.5461C160.189 75.7122 159.443 75.2782 159.001 74.2968C158.641 74.4893 158.305 74.6818 157.96 74.8554C156.198 75.7349 154.378 75.8594 152.535 75.1574C151.075 74.5987 150.375 73.4173 150.451 71.8584C150.527 70.3411 151.378 69.4201 152.698 68.8615C154.268 68.2009 155.94 68.0575 157.624 68.0084C158.865 67.9707 158.865 67.9782 158.861 66.7591C158.853 65.2115 157.96 64.215 156.432 63.9999C155.168 63.8225 153.939 64.0263 152.706 64.249C151.923 64.3887 151.851 64.3358 151.733 63.4564V63.4639ZM158.853 69.1332C157.87 68.9785 155.664 69.2276 154.843 69.5711C153.878 69.975 153.398 70.7827 153.47 71.8811C153.538 72.9455 154.037 73.5494 155.093 73.8325C156.05 74.0892 157.011 74.0363 157.957 73.8023C158.838 73.5834 158.834 73.5645 158.838 72.67C158.838 72.5492 158.853 72.4284 158.853 72.3076C158.853 71.2545 158.853 70.2052 158.853 69.1332Z" fill="white"/>
<path d="M73.9509 74.5044C72.9824 74.8781 72.0707 75.3348 71.1097 75.5839C69.6608 75.9538 68.2307 75.7349 66.918 75.0027C65.7527 74.3535 65.3215 73.289 65.3631 72.0057C65.4047 70.7488 66.0213 69.8429 67.1033 69.2352C68.2042 68.6162 69.4262 68.401 70.6557 68.2652C71.5675 68.1632 72.4906 68.133 73.4099 68.0915C73.6861 68.0802 73.7958 67.9519 73.8071 67.7103C73.8487 66.9365 73.8071 66.1703 73.4629 65.4607C73.0618 64.6378 72.3203 64.3208 71.4729 64.1434C70.1147 63.8565 68.8058 64.1585 67.4892 64.4038C66.9785 64.4982 66.6456 64.2642 66.6494 63.7471C66.6494 63.6678 66.7326 63.547 66.8082 63.5206C68.976 62.6864 71.1816 62.1165 73.5234 62.6524C75.4339 63.0903 76.5726 64.4906 76.5651 66.4383C76.5613 68.4577 76.5121 70.4732 76.4932 72.4926C76.4932 72.821 76.5235 73.1532 76.5651 73.4815C76.6294 73.976 76.9396 74.2968 77.4428 74.3799C77.753 74.4327 78.0746 74.4327 78.3848 74.4893C78.4907 74.5082 78.6458 74.6177 78.6572 74.7007C78.6723 74.8177 78.6004 75.0442 78.5248 75.0668C77.5449 75.3235 76.6067 75.7613 75.5474 75.6708C74.8551 75.6141 74.4162 75.2405 74.0682 74.6969C74.0114 74.6101 73.9585 74.5195 73.9509 74.5082V74.5044ZM73.7693 69.1786C72.8424 69.2314 71.9647 69.2239 71.1022 69.3484C70.5044 69.4353 69.8878 69.6164 69.3581 69.9033C68.4539 70.3902 68.2988 71.2734 68.4085 72.2095C68.5069 73.0437 68.9344 73.6363 69.7705 73.8854C71.0303 74.2666 72.2749 74.1496 73.4969 73.7269C73.6104 73.6891 73.7542 73.5268 73.7542 73.4211C73.7731 72.0397 73.7655 70.6582 73.7655 69.1786H73.7693Z" fill="white"/>
<path d="M98.2242 74.4892C97.1649 74.8779 96.1926 75.38 95.1636 75.58C93.7563 75.8518 92.33 75.7046 91.0627 74.9044C89.1219 73.6739 89.0992 70.7033 91.0173 69.4238C92.1295 68.6802 93.3969 68.4084 94.6907 68.265C95.6933 68.1518 96.7072 68.1367 97.7135 68.0574C97.8308 68.0461 98.0388 67.8951 98.035 67.8158C98.0048 67.1591 97.9972 66.491 97.861 65.8493C97.687 65.0151 97.093 64.5207 96.291 64.2565C95.3944 63.962 94.4789 63.9469 93.5596 64.064C92.9315 64.1432 92.2998 64.23 91.6907 64.3961C91.2518 64.5131 91.074 64.381 90.987 63.9847C90.9605 63.8677 90.9227 63.7544 90.8659 63.5506C91.4939 63.3393 92.1068 63.109 92.7348 62.9203C94.2708 62.4598 95.8332 62.3164 97.4335 62.539C99.4386 62.8184 100.808 64.347 100.808 66.374C100.808 68.4688 100.789 70.5637 100.778 72.6585C100.778 72.8699 100.785 73.0813 100.801 73.2889C100.846 73.9381 101.194 74.2967 101.852 74.3759C102.136 74.4099 102.427 74.4212 102.703 74.4854C102.798 74.508 102.919 74.6477 102.93 74.7458C102.942 74.844 102.851 75.0252 102.772 75.0478C101.913 75.2667 101.058 75.5121 100.188 75.6479C99.3554 75.7763 98.7349 75.3611 98.315 74.6439C98.2696 74.5684 98.2242 74.4929 98.2242 74.4929V74.4892ZM95.5192 74.1004C95.5192 74.1004 95.5344 74.1381 95.5419 74.157C96.2494 74.0174 96.9606 73.9003 97.6567 73.7229C97.8005 73.6852 97.9897 73.4512 97.9972 73.3002C98.0464 72.0508 98.0502 70.8015 98.0805 69.5521C98.088 69.269 98.0048 69.1105 97.7021 69.1445C96.5672 69.2728 95.4171 69.3219 94.3011 69.5521C93.1585 69.7861 92.6289 70.6618 92.6554 71.9263C92.6819 73.0398 93.2342 73.7003 94.4032 73.9607C94.7702 74.0438 95.1485 74.0589 95.5192 74.1042V74.1004Z" fill="white"/>
<path d="M106.71 81.072C106.63 80.853 106.57 80.6832 106.501 80.4869C107.077 80.1812 107.652 79.9019 108.204 79.5772C109.816 78.6223 110.735 77.1767 110.776 75.3309C110.875 70.7524 110.871 66.1702 110.901 61.5917C110.909 60.4178 110.886 59.2401 110.894 58.0625C110.894 57.6737 110.75 57.4435 110.364 57.3453C109.944 57.2359 109.536 57.0547 109.112 56.9754C108.726 56.9037 108.65 56.7112 108.73 56.3451H115.933C115.959 56.4847 115.986 56.6282 116.02 56.8207C115.524 56.9679 115.033 57.1264 114.529 57.2661C113.814 57.4661 113.769 57.5076 113.769 58.3041C113.769 63.2336 113.792 68.1631 113.75 73.0926C113.739 74.2212 113.553 75.3611 113.326 76.4746C113.039 77.8938 112.146 78.9243 110.898 79.6301C109.607 80.3623 108.2 80.7738 106.713 81.0644L106.71 81.072Z" fill="white"/>
<path d="M130.577 68.514C129.351 68.514 128.205 68.5103 127.055 68.514C125.258 68.5216 123.457 68.5404 121.66 68.5404C121.274 68.5404 121.161 68.6575 121.255 69.0576C121.411 69.7256 121.422 70.4353 121.634 71.0807C122.163 72.6849 123.465 73.4058 125.02 73.738C126.62 74.0777 128.235 73.9569 129.847 73.8172C129.968 73.8059 130.085 73.7908 130.206 73.7833C130.278 73.7833 130.354 73.7946 130.418 73.7983C130.604 74.1984 130.452 74.3947 130.089 74.5721C128.084 75.5309 125.973 75.9008 123.794 75.5346C121.255 75.1043 119.175 73.9116 118.486 71.2581C117.714 68.2951 118.399 65.1623 121.214 63.3694C122.61 62.4786 124.172 62.3087 125.788 62.4106C126.995 62.4899 128.107 62.8183 129.015 63.6524C130.04 64.5923 130.494 65.7926 130.573 67.1477C130.6 67.5817 130.577 68.0158 130.577 68.5065V68.514ZM121.331 67.3741C121.369 67.3892 121.411 67.4194 121.452 67.4194C123.4 67.4194 125.353 67.4194 127.301 67.393C127.403 67.393 127.588 67.1816 127.588 67.0646C127.596 66.6305 127.577 66.1889 127.501 65.7586C127.309 64.6602 126.866 63.7279 125.633 63.4788C123.09 62.9693 121.422 64.966 121.335 67.3703L121.331 67.3741Z" fill="white"/>
<path d="M12.3568 75.4329H5.26336C5.06664 75.0403 5.17257 74.8403 5.59628 74.7572C5.97838 74.6817 6.34914 74.5345 6.73124 74.4477C7.189 74.342 7.36303 74.0891 7.36303 73.6136C7.36303 71.3979 7.40086 69.1823 7.39708 66.9666C7.38951 64.0263 7.35168 61.0897 7.33655 58.1494C7.33655 57.7455 7.1663 57.5454 6.77664 57.4624C6.3794 57.3756 5.9973 57.2246 5.60007 57.134C5.21418 57.051 5.05151 56.8622 5.19527 56.4584H12.266C12.2925 56.6282 12.3152 56.783 12.3455 56.983C11.8234 57.1302 11.324 57.2888 10.8171 57.4133C10.4388 57.5077 10.2685 57.7002 10.2685 58.1078C10.2761 62.7354 10.2723 67.3667 10.2723 71.9943C10.2723 72.568 10.2799 73.1417 10.2723 73.7117C10.2647 74.1193 10.4388 74.3609 10.8398 74.459C11.2067 74.5459 11.5624 74.678 11.9331 74.7497C12.319 74.829 12.4249 75.0479 12.3493 75.4291L12.3568 75.4329Z" fill="white"/>
<path d="M13.4957 65.0265C14.9333 66.7627 16.3482 68.4688 17.7593 70.1749C18.3836 70.9298 19.057 71.6545 19.6207 72.451C20.5022 73.6928 21.6447 74.4854 23.1428 74.7836C23.2866 74.81 23.419 75.0025 23.4984 75.1497C23.5211 75.1912 23.3358 75.4328 23.245 75.4328C21.6598 75.4517 20.0709 75.4517 18.4857 75.4404C18.3798 75.4404 18.2436 75.3385 18.1679 75.2441C16.4617 73.0926 14.7706 70.9374 13.0606 68.7859C12.2737 67.797 11.4641 66.8269 10.6318 65.804C11.5247 64.883 12.391 63.9847 13.2574 63.0864C14.7252 61.569 16.2082 60.063 17.6572 58.5268C18.4138 57.7228 18.3268 57.4888 17.2827 57.2132C17.1805 57.1868 17.0784 57.1604 16.9724 57.1453C16.5714 57.0962 16.4239 56.8848 16.5563 56.4583C16.6547 56.447 16.7682 56.4281 16.8816 56.4281C18.8186 56.4281 20.7518 56.4206 22.6888 56.4319C22.8212 56.4319 23.0218 56.5527 23.0672 56.6697C23.1655 56.9075 23.0331 57.0434 22.7645 57.0924C21.2853 57.3453 20.1692 58.1757 19.1553 59.2477C17.3697 61.1312 15.5197 62.9543 13.6962 64.8C13.6319 64.8642 13.5752 64.9321 13.4881 65.0302L13.4957 65.0265Z" fill="white"/>
<path d="M87.4792 75.331H80.7073C80.5371 74.9725 80.6392 74.7762 81.0024 74.6969C81.3391 74.6214 81.672 74.5157 82.0088 74.4516C82.4892 74.361 82.6746 74.0968 82.6708 73.6023C82.6708 70.4996 82.7011 67.3932 82.7011 64.2906C82.7011 61.939 82.6632 59.5913 82.6519 57.2398C82.6519 56.9491 82.6216 56.7717 82.2622 56.7151C81.8196 56.6472 81.3921 56.4773 80.9532 56.3679C80.6809 56.2999 80.5257 56.1754 80.5863 55.8432C82.1752 55.5224 83.7755 55.2015 85.4439 54.8656C85.4439 55.4846 85.4439 56.0621 85.4439 56.6434C85.4363 59.3686 85.4212 62.09 85.4174 64.8152C85.4136 67.3328 85.4174 69.8504 85.4174 72.3643C85.4174 72.8323 85.4439 73.2966 85.4401 73.7646C85.4401 74.127 85.6293 74.3195 85.9508 74.41C86.3291 74.512 86.7037 74.6139 87.0858 74.6931C87.4414 74.7649 87.57 74.9574 87.4717 75.3273L87.4792 75.331Z" fill="white"/>
<path d="M47.4949 75.3799H40.3938C40.3863 75.2101 40.3749 75.0553 40.3673 74.8553C40.844 74.7269 41.3018 74.5948 41.7671 74.474C42.1681 74.3721 42.3687 74.1759 42.3649 73.7191C42.3497 70.8845 42.3573 68.0536 42.3611 65.2189C42.3611 65.1887 42.3611 65.1585 42.3611 65.1283C42.346 64.4074 42.346 64.4112 41.6309 64.23C41.2942 64.1432 40.9651 64.0262 40.6284 63.9582C40.3371 63.9016 40.2766 63.7318 40.2917 63.4525C41.4191 63.226 42.5389 62.9995 43.6549 62.773C44.0219 62.6976 44.3927 62.6221 44.7558 62.5315C45.0282 62.4635 45.1152 62.5768 45.1115 62.8259C45.1077 63.2411 45.1115 63.6563 45.1115 64.1507C46.8101 63.1467 48.5277 62.4749 50.5479 62.4749C50.4609 62.9618 50.3852 63.4109 50.2982 63.8601C50.1317 64.7018 49.9539 65.536 49.795 66.3777C49.7534 66.6042 49.7118 66.7627 49.4318 66.8042C49.1443 66.8457 49.0687 66.6948 48.9854 66.4834C48.8228 66.0795 48.6563 65.6756 48.4709 65.2793C48.0623 64.4187 47.65 64.2074 46.708 64.347C46.6474 64.3546 46.5869 64.3583 46.5301 64.3734C45.2174 64.6829 45.1077 64.8188 45.1077 66.1739C45.1077 68.616 45.119 71.0581 45.1228 73.4964C45.1228 74.1683 45.2212 74.2891 45.887 74.4589C46.2956 74.5646 46.7004 74.6816 47.1128 74.7571C47.4835 74.8251 47.5781 75.0289 47.5024 75.3762L47.4949 75.3799Z" fill="white"/>
<path d="M52.568 63.4337C53.65 63.2224 54.7395 63.0148 55.8291 62.7996C56.2112 62.7241 56.5971 62.6524 56.9754 62.5543C57.331 62.4599 57.4256 62.6033 57.4105 62.9317C57.3688 63.9395 57.3121 64.9473 57.3121 65.9551C57.3121 68.5293 57.3424 71.1073 57.3461 73.6815C57.3461 74.1836 57.5883 74.41 58.0536 74.5006C58.3903 74.5648 58.7194 74.678 59.0561 74.7535C59.3815 74.8252 59.5063 75.0064 59.442 75.3612H52.5491C52.5415 75.2027 52.5339 75.0441 52.5264 74.863C52.9993 74.7346 53.4457 74.6025 53.8997 74.4968C54.3499 74.3912 54.6033 74.1911 54.5996 73.6702C54.5693 70.6884 54.5617 67.7065 54.5579 64.7208C54.5579 64.4264 54.418 64.3283 54.1758 64.2679C53.737 64.1584 53.3019 64.0452 52.8631 63.9282C52.5528 63.8452 52.5528 63.8376 52.568 63.4375V63.4337Z" fill="white"/>
</svg>
